<svg width="24" height="24" viewBox="0 0 100 100" xmlns="http://www.w3.org/2000/svg">
  <defs>
    <linearGradient id="fireGrad" x1="0%" y1="0%" x2="0%" y2="100%">
      <stop offset="0%" style="stop-color:#ffd43b; stop-opacity:1" />
      <stop offset="30%" style="stop-color:#ffaa00; stop-opacity:1" />
      <stop offset="100%" style="stop-color:#ff6b35; stop-opacity:1" />
    </linearGradient>
  </defs>
  <path d="M 50,15 C 45,25 42,35 45,45 C 35,40 30,50 32,60 C 25,55 20,65 25,75 C 30,85 40,90 50,90 C 60,90 70,85 75,75 C 80,65 75,55 68,60 C 70,50 65,40 55,45 C 58,35 55,25 50,15 Z"
        fill="url(#fireGrad)" stroke="#cc6600" stroke-width="2"/>
  <path d="M 50,40 C 48,48 47,55 50,62 C 45,58 42,65 45,72 C 48,78 52,80 56,78 C 60,76 62,70 60,65 C 62,68 65,65 63,60 C 61,55 58,52 55,55 C 56,50 55,45 50,40 Z"
        fill="#ffe873" opacity="0.9"/>
</svg>
